<?xml version='1.0' encoding='utf-8'?>
<mxfile host="app.diagrams.net"><diagram name="E-Commerce Architecture"><mxGraphModel dx="1000" dy="1000" grid="1" gridSize="10" guides="1" tooltips="1" connect="1" arrows="1" fold="1" page="1" pageScale="1" pageWidth="850" pageHeight="1100" math="0" shadow="0"><root><mxCell id="0" /><mxCell id="1" parent="0" /><mxCell id="2" value="API Gateway" style="shape=rectangle;rounded=1;whiteSpace=wrap;html=1;" vertex="1" parent="1"><mxGeometry x="320" y="40" width="140" height="60" as_="geometry" /></mxCell><mxCell id="3" value="Gateway Service" style="shape=rectangle;rounded=1;whiteSpace=wrap;html=1;" vertex="1" parent="1"><mxGeometry x="320" y="120" width="140" height="60" as_="geometry" /></mxCell><mxCell id="4" value="Product Service" style="shape=rectangle;rounded=1;whiteSpace=wrap;html=1;" vertex="1" parent="1"><mxGeometry x="80" y="220" width="140" height="60" as_="geometry" /></mxCell><mxCell id="5" value="Order Service" style="shape=rectangle;rounded=1;whiteSpace=wrap;html=1;" vertex="1" parent="1"><mxGeometry x="320" y="220" width="140" height="60" as_="geometry" /></mxCell><mxCell id="6" value="User Service" style="shape=rectangle;rounded=1;whiteSpace=wrap;html=1;" vertex="1" parent="1"><mxGeometry x="560" y="220" width="140" height="60" as_="geometry" /></mxCell><mxCell id="7" style="endArrow=block;" edge="1" parent="1" source="2" target="3"><mxGeometry relative="1" as_="geometry" /></mxCell><mxCell id="8" style="endArrow=block;" edge="1" parent="1" source="3" target="4"><mxGeometry relative="1" as_="geometry" /></mxCell><mxCell id="9" style="endArrow=block;" edge="1" parent="1" source="3" target="5"><mxGeometry relative="1" as_="geometry" /></mxCell><mxCell id="10" style="endArrow=block;" edge="1" parent="1" source="3" target="6"><mxGeometry relative="1" as_="geometry" /></mxCell></root></mxGraphModel></diagram></mxfile>